<svg xmlns="http://www.w3.org/2000/svg" width="64.131" height="93.348" viewBox="0 0 64.131 93.348"><defs><style>.a{fill:#808285;font-size:5px;font-family:Helvetica;}.b,.c{fill:#1857bd;}.b{font-size:16px;font-family:HelveticaNeue, Helvetica Neue;}.d{fill:#f8a971;}</style></defs><g transform="translate(-299.679 -279.631)"><text class="a" transform="translate(310.411 370.979)"><tspan x="0" y="0">Nouvelle expérience</tspan></text><text class="b" transform="translate(299.679 360.383)"><tspan x="0" y="0">Carrière</tspan></text><g transform="translate(302.51 279.631)"><path class="c" d="M365.709,283.532l-10.058-3.9-.3.117c-3.068,1.208-16.783,6.816-20.294,11.908-3.51-5.092-17.221-10.7-20.288-11.908l-.3-.117-10.064,3.9v45.8l23.926,9.312v-46l-21.4-8.332,7.538-2.921c11.312,4.483,17.052,8.516,18.992,10.917h3.1c2.631-3.451,12.422-8.261,19.1-10.917l7.532,2.921-21.4,8.332v46l23.92-9.312Z" transform="translate(-304.409 -279.631)"/><path class="d" d="M353.143,304.24a2.437,2.437,0,0,0-2.443,2.443v1.23l.8-.007,1.406.007h2.826l.876-.007v-1.23a2.456,2.456,0,0,0-2.443-2.443Z" transform="translate(-322.998 -289.51)"/><path class="d" d="M351.5,316.234v-4.587l-.8.006-.007,4.581Z" transform="translate(-322.993 -292.488)"/><path class="d" d="M355.132,316.238l.67-.006v-4.576h-1.413l.007,4.581Z" transform="translate(-324.479 -292.491)"/><path class="d" d="M359.986,316.234v-4.587l-.876.006v4.576h0Z" transform="translate(-326.375 -292.488)"/><path class="d" d="M352.613,320.589h-1.925v31.285h2.563V320.589Z" transform="translate(-322.993 -296.078)"/><path class="d" d="M358.216,320.589h-1.926v31.285h2.563V320.589Z" transform="translate(-325.243 -296.078)"/><path class="c" d="M355.1,385.965l.789-2.182h-1.577Z" transform="translate(-324.448 -321.454)"/><path class="d" d="M356.557,374.149h-5.63l1.718,4.9.035.1H354.8l.035-.1Z" transform="translate(-323.089 -317.586)"/></g></g></svg>