<svg xmlns="http://www.w3.org/2000/svg" width="114.553" height="42.724" viewBox="0 0 114.553 42.724"><defs><style>.a{fill:#c2003a;}.b{fill:#1a1818;}</style></defs><g transform="translate(-187.962 -560.939)"><path class="a" d="M207.391,574.147c3.878.922,5.683,2.957,5.683,4.838,0,7.641-13.4,8.87-18.93,8.87-1.5,0-6.182,0-6.182-2.227,0-.806,1.344-2.841,1.959-3.418a10.194,10.194,0,0,1,3.3-1.113c.192,0,.307.039.307.269,0,.384-.384.576-.653.73a4.418,4.418,0,0,0-.653.575v.077c13.708.5,17.471-3.455,17.471-4.07,0-1.958-10.636-3.494-12.479-3.8-1.92-.307-3.917-.922-3.917-3.225a14.248,14.248,0,0,1,1.229-5.107c1.19-1.958,8.14-5.606,16.549-5.606a23.032,23.032,0,0,1,4.838.538c.883.192,1,.5,1,1.267,0,2.841-.96,3.494-3.225,4.377A10.882,10.882,0,0,0,210.232,569a2.292,2.292,0,0,1-.96.384.537.537,0,0,1-.614-.576,8.589,8.589,0,0,1,2.8-2.688l-.077-.077c-9.906.347-14.168,3.917-14.207,4.8C197.177,571.383,196.678,571.652,207.391,574.147Z"/><path class="a" d="M225.975,577.065c.806-.729,4.569-4.376,5.529-4.376.307,0,.729.114.883,2.111.077.922-.96,1.8-1.575,2.342-1.228,1.114-3.954,4.147-3.954,5.875,0,.614.345.845.959.845,1.46,0,4.762-2.688,5.914-3.61l.23,1.651c-1.958,1.882-6.028,6.3-8.87,6.3a2.336,2.336,0,0,1-2.265-2.534,9.062,9.062,0,0,1,.806-3.225l-.076-.077c-1.5,1.3-4.07,4.761-6.182,4.761-1.882,0-2.918-2.15-2.918-3.8,0-3.724,2.879-7.564,5.337-9.177a2.852,2.852,0,0,1,1.689-.422c.538,0,2.5-.345,2.342.806a5.028,5.028,0,0,1-1.535,2.036,13.372,13.372,0,0,1-2.918,2.764c-1.191.844-2.112,1.689-2.112,3.3,0,.192.038.576.307.576.691,0,2.8-1.113,4.607-2.726Z"/><path class="a" d="M237.647,580.061c-.844.614-1.536,1.19-1.536,2.265,0,.883.922,2.073,2.918,2.073,2.918,0,6.259-2.687,8.486-4.415l.461,1.5c-2.342,2.5-6.643,6.3-10.29,6.3-2.957,0-4.377-2.765-4.377-5.606,0-3.225,1.151-4.415,3.647-6.3,1.728-1.3,5.414-3.379,7.564-3.379a1.54,1.54,0,0,1,1.728,1.767c0,2.111-3.033,5.068-4.07,5.068-.883,0-1.267-.96-1.3-1.69Z"/><path class="a" d="M251.431,580.061c-.844.614-1.535,1.19-1.535,2.265,0,.883.921,2.073,2.918,2.073,2.918,0,6.258-2.687,8.485-4.415l.461,1.5c-2.342,2.5-6.643,6.3-10.29,6.3-2.957,0-4.377-2.765-4.377-5.606,0-3.225,1.151-4.415,3.647-6.3,1.728-1.3,5.414-3.379,7.564-3.379a1.54,1.54,0,0,1,1.728,1.767c0,2.111-3.033,5.068-4.07,5.068-.883,0-1.267-.96-1.306-1.69Z"/><path class="a" d="M275.237,581.558c-2.342,2.726-6.566,6.335-10.367,6.335-2.8,0-4.108-2.5-4.185-5.029-.154-5.031,5.413-10.175,10.4-10.138,1.229,0,2.764.308,2.764,1.844,0,1.881-1.881,4.723-9.253,7.142l-.077.844c-.115,1.459,1.152,1.958,2.381,1.958,2.726,0,5.951-2.8,7.986-4.415Zm-4.761-6.182c0-.269-.192-.5-.461-.422a8.434,8.434,0,0,0-5.184,4.876C268.21,578.678,270.514,576.029,270.476,575.376Z"/><path class="a" d="M288.061,580.675l.384,1.459c-2.342,2.342-6.527,5.836-9.6,5.682-2.572-.115-5.413-1.574-6.105-4.377a1.3,1.3,0,0,1-.845.5.715.715,0,0,1-.652-.73c0-.5.614-1.037.921-1.344l8.332-7.641a2.362,2.362,0,0,1,2.189-2.5c1.152,0,1.382.346,1.5,1.421.154,1.459.73,2.764.73,4.454,0,3.149-2.534,5.491-4.992,6.988,2.458.422,3.955-.729,5.837-2.15Zm-13.055.806c1.421.077,2.266,1.267,3,2.265,2.3-1.42,2.917-2.073,3.033-4.3-.116-.806-.269-1.843-.5-3.149Z"/><path class="a" d="M301.846,580.675l.384,1.459c-2.342,2.342-6.528,5.836-9.6,5.682-2.573-.115-5.414-1.574-6.105-4.377a1.3,1.3,0,0,1-.845.5.716.716,0,0,1-.653-.73c0-.5.614-1.037.922-1.344l8.331-7.641a2.362,2.362,0,0,1,2.189-2.5c1.152,0,1.382.346,1.5,1.421.154,1.459.729,2.764.729,4.454,0,3.149-2.534,5.491-4.991,6.988,2.457.422,3.955-.729,5.836-2.15Zm-13.055.806c1.421.077,2.266,1.267,3,2.265,2.3-1.42,2.918-2.073,3.033-4.3-.115-.806-.268-1.843-.5-3.149Z"/><path class="b" d="M236.45,601.378a.135.135,0,0,1-.025.082.161.161,0,0,1-.084.056,1.028,1.028,0,0,1-.154.035,2.084,2.084,0,0,1-.482,0,.959.959,0,0,1-.158-.035.165.165,0,0,1-.081-.056.141.141,0,0,1-.024-.082v-6.6h-.012l-2.672,6.633a.188.188,0,0,1-.05.071.252.252,0,0,1-.093.049.675.675,0,0,1-.147.03,1.978,1.978,0,0,1-.2.008,1.612,1.612,0,0,1-.211-.011.741.741,0,0,1-.146-.033.257.257,0,0,1-.091-.049.15.15,0,0,1-.044-.065l-2.555-6.633h-.006v6.6a.135.135,0,0,1-.024.082.164.164,0,0,1-.085.056,1.032,1.032,0,0,1-.156.035,1.7,1.7,0,0,1-.248.014,1.635,1.635,0,0,1-.241-.014.946.946,0,0,1-.154-.035.132.132,0,0,1-.1-.138v-6.973a.425.425,0,0,1,.13-.351.453.453,0,0,1,.292-.106h.619a1.427,1.427,0,0,1,.333.035.742.742,0,0,1,.25.112.646.646,0,0,1,.178.193,1.323,1.323,0,0,1,.125.275l2.168,5.491h.03l2.255-5.473a1.707,1.707,0,0,1,.143-.3.773.773,0,0,1,.17-.2.59.59,0,0,1,.205-.106.984.984,0,0,1,.262-.032h.649a.531.531,0,0,1,.17.027.347.347,0,0,1,.137.082.442.442,0,0,1,.092.14.535.535,0,0,1,.036.208Z"/><path class="b" d="M242.327,601.39a.123.123,0,0,1-.047.1.321.321,0,0,1-.129.053,1.216,1.216,0,0,1-.24.017,1.325,1.325,0,0,1-.244-.017.282.282,0,0,1-.131-.053.127.127,0,0,1-.041-.1v-.528a2.625,2.625,0,0,1-.771.575,2.052,2.052,0,0,1-.9.205,2.454,2.454,0,0,1-.753-.109,1.629,1.629,0,0,1-.574-.313,1.4,1.4,0,0,1-.37-.5,1.683,1.683,0,0,1-.131-.68,1.569,1.569,0,0,1,.181-.773,1.5,1.5,0,0,1,.522-.545,2.542,2.542,0,0,1,.832-.325,5.114,5.114,0,0,1,1.107-.109h.727v-.41a2.036,2.036,0,0,0-.065-.539.927.927,0,0,0-.208-.39.891.891,0,0,0-.372-.234,1.726,1.726,0,0,0-.562-.079,2.228,2.228,0,0,0-.642.085,3.442,3.442,0,0,0-.5.187c-.143.069-.262.131-.357.188a.5.5,0,0,1-.214.085.142.142,0,0,1-.082-.024.2.2,0,0,1-.062-.07.377.377,0,0,1-.038-.12,1.2,1.2,0,0,1,.009-.393.34.34,0,0,1,.1-.161,1.263,1.263,0,0,1,.272-.179,3.068,3.068,0,0,1,.445-.187,3.991,3.991,0,0,1,.551-.141,3.3,3.3,0,0,1,.6-.055,3.16,3.16,0,0,1,.966.129,1.564,1.564,0,0,1,.645.378,1.461,1.461,0,0,1,.357.618,2.963,2.963,0,0,1,.112.861Zm-.961-2.409h-.826a3.11,3.11,0,0,0-.692.068,1.424,1.424,0,0,0-.486.2.818.818,0,0,0-.284.316.948.948,0,0,0-.091.425.852.852,0,0,0,.261.654,1.027,1.027,0,0,0,.729.243,1.357,1.357,0,0,0,.706-.194,3.068,3.068,0,0,0,.683-.591Z"/><path class="b" d="M248.432,601.378a.149.149,0,0,1-.023.082.18.18,0,0,1-.079.059.638.638,0,0,1-.156.035,2.2,2.2,0,0,1-.252.011c-.1,0-.192,0-.26-.008a.874.874,0,0,1-.173-.03.291.291,0,0,1-.114-.058.469.469,0,0,1-.08-.091l-2.226-2.918v2.924a.13.13,0,0,1-.024.079.188.188,0,0,1-.076.056.566.566,0,0,1-.146.035,2,2,0,0,1-.24.011,1.938,1.938,0,0,1-.235-.011.616.616,0,0,1-.149-.035.163.163,0,0,1-.076-.056.143.143,0,0,1-.021-.079v-7.828a.154.154,0,0,1,.021-.082.149.149,0,0,1,.076-.059.574.574,0,0,1,.149-.035,1.912,1.912,0,0,1,.235-.012,1.967,1.967,0,0,1,.24.012.529.529,0,0,1,.146.035.169.169,0,0,1,.076.059.139.139,0,0,1,.024.082v4.769l1.992-2.191a.507.507,0,0,1,.1-.1.5.5,0,0,1,.126-.064.629.629,0,0,1,.172-.035c.067-.006.147-.009.241-.009s.179,0,.246.009a.668.668,0,0,1,.161.029.181.181,0,0,1,.088.053.13.13,0,0,1,.026.084.3.3,0,0,1-.038.141.793.793,0,0,1-.126.164l-1.91,1.91,2.145,2.784a1.32,1.32,0,0,1,.108.161A.254.254,0,0,1,248.432,601.378Z"/><path class="b" d="M253.67,598.519a.407.407,0,0,1-.114.325.4.4,0,0,1-.263.1h-3.472a3.246,3.246,0,0,0,.088.791,1.518,1.518,0,0,0,.295.6,1.326,1.326,0,0,0,.535.387,2.135,2.135,0,0,0,.807.134,3.3,3.3,0,0,0,.671-.061,3.935,3.935,0,0,0,.51-.138c.143-.051.26-.1.353-.137a.581.581,0,0,1,.209-.062.13.13,0,0,1,.073.021.135.135,0,0,1,.051.061.461.461,0,0,1,.026.114,1.507,1.507,0,0,1,.009.179,1.252,1.252,0,0,1-.006.132q-.006.055-.015.1a.254.254,0,0,1-.029.08.352.352,0,0,1-.053.067.845.845,0,0,1-.19.1,2.78,2.78,0,0,1-.41.144,5.693,5.693,0,0,1-.583.126,4.273,4.273,0,0,1-.706.056,3.27,3.27,0,0,1-1.14-.182,2.112,2.112,0,0,1-.823-.539,2.294,2.294,0,0,1-.5-.9,4.151,4.151,0,0,1-.17-1.253,3.923,3.923,0,0,1,.176-1.222,2.6,2.6,0,0,1,.506-.92,2.225,2.225,0,0,1,.8-.58,2.62,2.62,0,0,1,1.049-.2,2.535,2.535,0,0,1,1.058.2,1.989,1.989,0,0,1,.717.536,2.153,2.153,0,0,1,.414.791,3.5,3.5,0,0,1,.131.97Zm-.972-.288a1.769,1.769,0,0,0-.339-1.2,1.291,1.291,0,0,0-1.058-.433,1.4,1.4,0,0,0-.631.134,1.351,1.351,0,0,0-.454.358,1.632,1.632,0,0,0-.283.518,2.17,2.17,0,0,0-.112.618Z"/><path class="b" d="M258.932,594.329a.636.636,0,0,1-.129.463.692.692,0,0,1-.474.123.681.681,0,0,1-.466-.12.625.625,0,0,1-.126-.454.636.636,0,0,1,.129-.463.692.692,0,0,1,.474-.123.682.682,0,0,1,.466.12A.624.624,0,0,1,258.932,594.329Zm-.111,7.055a.13.13,0,0,1-.024.079.188.188,0,0,1-.076.056.567.567,0,0,1-.146.035,2,2,0,0,1-.241.011,1.931,1.931,0,0,1-.234-.011.617.617,0,0,1-.149-.035.163.163,0,0,1-.076-.056.143.143,0,0,1-.021-.079V596.11a.137.137,0,0,1,.1-.134.57.57,0,0,1,.149-.036,2.155,2.155,0,0,1,.234-.011,2.23,2.23,0,0,1,.241.011.525.525,0,0,1,.146.036.167.167,0,0,1,.076.058.134.134,0,0,1,.024.076Z"/><path class="b" d="M263.35,601a1.282,1.282,0,0,1-.023.27.3.3,0,0,1-.071.146.457.457,0,0,1-.14.088,1.141,1.141,0,0,1-.214.067c-.08.018-.165.033-.255.044a2.037,2.037,0,0,1-.27.018,2.016,2.016,0,0,1-.7-.109,1.129,1.129,0,0,1-.48-.328,1.355,1.355,0,0,1-.273-.556,3.314,3.314,0,0,1-.085-.794v-3.082H260.1a.159.159,0,0,1-.14-.094.645.645,0,0,1-.053-.3,1.09,1.09,0,0,1,.014-.187.52.52,0,0,1,.039-.126.142.142,0,0,1,.061-.07.173.173,0,0,1,.085-.021h.732V594.7a.145.145,0,0,1,.021-.076.169.169,0,0,1,.076-.062.525.525,0,0,1,.15-.038,2.128,2.128,0,0,1,.234-.011,2.2,2.2,0,0,1,.24.011.494.494,0,0,1,.147.038.194.194,0,0,1,.076.062.138.138,0,0,1,.023.076v1.254h1.354a.159.159,0,0,1,.082.021.165.165,0,0,1,.061.07.368.368,0,0,1,.038.126,1.231,1.231,0,0,1,.012.187.645.645,0,0,1-.053.3.159.159,0,0,1-.14.094H261.8V599.7a1.679,1.679,0,0,0,.161.823.611.611,0,0,0,.578.279.978.978,0,0,0,.24-.027,1.942,1.942,0,0,0,.187-.055c.055-.02.1-.038.141-.056a.252.252,0,0,1,.105-.026.123.123,0,0,1,.056.014.1.1,0,0,1,.041.056.574.574,0,0,1,.026.111A1.079,1.079,0,0,1,263.35,601Z"/><path class="b" d="M271.881,601.384a.13.13,0,0,1-.023.079.2.2,0,0,1-.076.056.565.565,0,0,1-.147.035,1.91,1.91,0,0,1-.234.011,1.974,1.974,0,0,1-.24-.011.565.565,0,0,1-.147-.035.2.2,0,0,1-.076-.056.13.13,0,0,1-.023-.079V598.3a3.03,3.03,0,0,0-.071-.727,1.508,1.508,0,0,0-.2-.474.889.889,0,0,0-.348-.3,1.114,1.114,0,0,0-.5-.1,1.253,1.253,0,0,0-.726.257,3.959,3.959,0,0,0-.762.756v3.686a.136.136,0,0,1-.023.079.2.2,0,0,1-.076.056.576.576,0,0,1-.147.035,1.985,1.985,0,0,1-.24.011,1.939,1.939,0,0,1-.235-.011.616.616,0,0,1-.149-.035.169.169,0,0,1-.076-.056.143.143,0,0,1-.021-.079v-7.828a.14.14,0,0,1,.1-.141.574.574,0,0,1,.149-.035,1.912,1.912,0,0,1,.235-.012,1.956,1.956,0,0,1,.24.012.538.538,0,0,1,.147.035.174.174,0,0,1,.076.059.146.146,0,0,1,.023.082v3.158a3.107,3.107,0,0,1,.838-.653,1.857,1.857,0,0,1,.85-.214,1.986,1.986,0,0,1,.887.178,1.6,1.6,0,0,1,.583.478,1.9,1.9,0,0,1,.32.7,4.231,4.231,0,0,1,.1.97Z"/><path class="b" d="M277.618,601.39a.123.123,0,0,1-.047.1.321.321,0,0,1-.129.053,1.216,1.216,0,0,1-.24.017,1.326,1.326,0,0,1-.244-.017.282.282,0,0,1-.131-.053.127.127,0,0,1-.041-.1v-.528a2.626,2.626,0,0,1-.771.575,2.052,2.052,0,0,1-.9.205,2.454,2.454,0,0,1-.753-.109,1.629,1.629,0,0,1-.574-.313,1.4,1.4,0,0,1-.37-.5,1.683,1.683,0,0,1-.131-.68,1.569,1.569,0,0,1,.181-.773,1.5,1.5,0,0,1,.522-.545,2.542,2.542,0,0,1,.832-.325,5.114,5.114,0,0,1,1.107-.109h.727v-.41a2.036,2.036,0,0,0-.065-.539.926.926,0,0,0-.208-.39.891.891,0,0,0-.372-.234,1.726,1.726,0,0,0-.562-.079,2.228,2.228,0,0,0-.642.085,3.44,3.44,0,0,0-.5.187c-.143.069-.262.131-.357.188a.5.5,0,0,1-.214.085.141.141,0,0,1-.082-.024.2.2,0,0,1-.062-.07.377.377,0,0,1-.038-.12,1.2,1.2,0,0,1,.009-.393.34.34,0,0,1,.1-.161,1.263,1.263,0,0,1,.272-.179,3.068,3.068,0,0,1,.445-.187,3.991,3.991,0,0,1,.551-.141,3.3,3.3,0,0,1,.6-.055,3.155,3.155,0,0,1,.966.129,1.564,1.564,0,0,1,.645.378,1.461,1.461,0,0,1,.357.618,2.964,2.964,0,0,1,.112.861Zm-.961-2.409h-.826a3.11,3.11,0,0,0-.692.068,1.424,1.424,0,0,0-.486.2.818.818,0,0,0-.284.316.949.949,0,0,0-.091.425.852.852,0,0,0,.261.654,1.027,1.027,0,0,0,.729.243,1.357,1.357,0,0,0,.706-.194,3.068,3.068,0,0,0,.683-.591Z"/><path class="b" d="M284.245,598.665a4.728,4.728,0,0,1-.15,1.242,2.709,2.709,0,0,1-.439.935,1.976,1.976,0,0,1-.718.592,2.218,2.218,0,0,1-.979.208,1.9,1.9,0,0,1-.433-.047,1.666,1.666,0,0,1-.39-.147,2.219,2.219,0,0,1-.378-.252q-.187-.152-.4-.357v2.637a.144.144,0,0,1-.024.082.167.167,0,0,1-.076.058.5.5,0,0,1-.146.035,1.968,1.968,0,0,1-.24.012,1.912,1.912,0,0,1-.235-.012.537.537,0,0,1-.149-.035.148.148,0,0,1-.076-.058.159.159,0,0,1-.021-.082V596.11a.175.175,0,0,1,.018-.085.137.137,0,0,1,.07-.055.419.419,0,0,1,.135-.032,2.245,2.245,0,0,1,.4,0,.412.412,0,0,1,.132.032.161.161,0,0,1,.073.055.155.155,0,0,1,.021.085v.709a5.475,5.475,0,0,1,.463-.427,2.728,2.728,0,0,1,.448-.3,2.088,2.088,0,0,1,.463-.182,2.2,2.2,0,0,1,1.479.161,1.846,1.846,0,0,1,.659.61,2.714,2.714,0,0,1,.372.9A4.817,4.817,0,0,1,284.245,598.665Zm-1,.111a4.867,4.867,0,0,0-.062-.782,2.267,2.267,0,0,0-.212-.671,1.273,1.273,0,0,0-.4-.469,1.081,1.081,0,0,0-.631-.175,1.275,1.275,0,0,0-.372.055,1.518,1.518,0,0,0-.371.176,2.649,2.649,0,0,0-.4.317,4.852,4.852,0,0,0-.436.483v2.1a4.156,4.156,0,0,0,.761.744,1.272,1.272,0,0,0,.754.258,1.1,1.1,0,0,0,.628-.176,1.324,1.324,0,0,0,.424-.469,2.344,2.344,0,0,0,.239-.656A3.548,3.548,0,0,0,283.243,598.776Z"/><path class="b" d="M290.549,598.665a4.73,4.73,0,0,1-.149,1.242,2.71,2.71,0,0,1-.44.935,1.965,1.965,0,0,1-.717.592,2.222,2.222,0,0,1-.979.208,1.9,1.9,0,0,1-.433-.047,1.665,1.665,0,0,1-.39-.147,2.218,2.218,0,0,1-.378-.252q-.187-.152-.4-.357v2.637a.143.143,0,0,1-.024.082.173.173,0,0,1-.076.058.5.5,0,0,1-.147.035,1.944,1.944,0,0,1-.24.012,1.884,1.884,0,0,1-.234-.012.545.545,0,0,1-.15-.035.152.152,0,0,1-.076-.058.169.169,0,0,1-.02-.082V596.11a.189.189,0,0,1,.017-.085.14.14,0,0,1,.071-.055.419.419,0,0,1,.134-.032,1.894,1.894,0,0,1,.2-.009,1.856,1.856,0,0,1,.2.009.419.419,0,0,1,.132.032.161.161,0,0,1,.073.055.155.155,0,0,1,.02.085v.709a5.8,5.8,0,0,1,.463-.427,2.814,2.814,0,0,1,.448-.3,2.127,2.127,0,0,1,.463-.182,2.206,2.206,0,0,1,1.48.161,1.853,1.853,0,0,1,.659.61,2.713,2.713,0,0,1,.372.9A4.875,4.875,0,0,1,290.549,598.665Zm-1,.111a4.751,4.751,0,0,0-.062-.782,2.239,2.239,0,0,0-.212-.671,1.262,1.262,0,0,0-.4-.469,1.086,1.086,0,0,0-.631-.175,1.275,1.275,0,0,0-.372.055,1.519,1.519,0,0,0-.371.176,2.6,2.6,0,0,0-.395.317,4.727,4.727,0,0,0-.436.483v2.1a4.185,4.185,0,0,0,.76.744,1.278,1.278,0,0,0,.755.258,1.108,1.108,0,0,0,.628-.176,1.334,1.334,0,0,0,.424-.469,2.376,2.376,0,0,0,.239-.656A3.549,3.549,0,0,0,289.547,598.776Z"/><path class="b" d="M296.5,598.519a.407.407,0,0,1-.114.325.4.4,0,0,1-.263.1h-3.472a3.246,3.246,0,0,0,.088.791,1.518,1.518,0,0,0,.3.6,1.326,1.326,0,0,0,.535.387,2.135,2.135,0,0,0,.807.134,3.3,3.3,0,0,0,.671-.061,3.934,3.934,0,0,0,.51-.138c.143-.051.26-.1.353-.137a.582.582,0,0,1,.209-.062.13.13,0,0,1,.073.021.135.135,0,0,1,.051.061.459.459,0,0,1,.026.114,1.507,1.507,0,0,1,.009.179,1.243,1.243,0,0,1-.006.132q-.006.055-.015.1a.255.255,0,0,1-.029.08.353.353,0,0,1-.053.067.844.844,0,0,1-.19.1,2.78,2.78,0,0,1-.41.144,5.693,5.693,0,0,1-.583.126,4.273,4.273,0,0,1-.706.056,3.27,3.27,0,0,1-1.14-.182,2.112,2.112,0,0,1-.823-.539,2.293,2.293,0,0,1-.5-.9,4.182,4.182,0,0,1-.17-1.253,3.923,3.923,0,0,1,.176-1.222,2.6,2.6,0,0,1,.506-.92,2.225,2.225,0,0,1,.8-.58,2.62,2.62,0,0,1,1.049-.2,2.535,2.535,0,0,1,1.058.2,2,2,0,0,1,.718.536,2.166,2.166,0,0,1,.413.791,3.5,3.5,0,0,1,.131.97Zm-.972-.288a1.764,1.764,0,0,0-.339-1.2,1.291,1.291,0,0,0-1.058-.433,1.4,1.4,0,0,0-.631.134,1.351,1.351,0,0,0-.454.358,1.631,1.631,0,0,0-.283.518,2.17,2.17,0,0,0-.112.618Z"/><path class="b" d="M302.515,601.384a.13.13,0,0,1-.024.079.188.188,0,0,1-.076.056.567.567,0,0,1-.146.035,1.939,1.939,0,0,1-.235.011,1.985,1.985,0,0,1-.24-.011.575.575,0,0,1-.147-.035.2.2,0,0,1-.076-.056.136.136,0,0,1-.023-.079V598.3a3.09,3.09,0,0,0-.07-.727,1.509,1.509,0,0,0-.206-.474.883.883,0,0,0-.348-.3,1.112,1.112,0,0,0-.5-.1,1.256,1.256,0,0,0-.727.257,3.959,3.959,0,0,0-.762.756v3.686a.136.136,0,0,1-.023.079.2.2,0,0,1-.077.056.566.566,0,0,1-.146.035,2,2,0,0,1-.24.011,1.939,1.939,0,0,1-.235-.011.617.617,0,0,1-.149-.035.163.163,0,0,1-.076-.056.144.144,0,0,1-.021-.079V596.11a.162.162,0,0,1,.018-.079.151.151,0,0,1,.07-.058.369.369,0,0,1,.135-.035,2.58,2.58,0,0,1,.43,0,.322.322,0,0,1,.132.035.181.181,0,0,1,.068.058.152.152,0,0,1,.02.079v.7a3.256,3.256,0,0,1,.888-.73,1.914,1.914,0,0,1,.894-.231,1.993,1.993,0,0,1,.888.178,1.616,1.616,0,0,1,.583.478,1.9,1.9,0,0,1,.319.7,4.2,4.2,0,0,1,.1.964Z"/></g></svg>