<svg xmlns="http://www.w3.org/2000/svg" width="118.778" height="24.439" viewBox="0 0 118.778 24.439"><defs><style>.a{fill:#be253e;}</style></defs><g transform="translate(-557 -1333)"><g transform="translate(483.207 782.155)"><path d="M79.528,565.183v-3.444H84.8v8.7a4.825,4.825,0,0,1-4.822,4.827H78.615a4.825,4.825,0,0,1-4.822-4.827V555.672a4.825,4.825,0,0,1,4.822-4.827h1.367a4.825,4.825,0,0,1,4.822,4.827v3.679H80.95v-2.972a1.987,1.987,0,0,0-1.985-1.988,1.647,1.647,0,0,0-1.646,1.648v13.816a1.985,1.985,0,0,0,1.985,1.987h.211a1.986,1.986,0,0,0,1.986-1.987v-4.67Z"/><path d="M139.09,565.734v4.152a1.954,1.954,0,1,1-3.907,0V556.347a1.954,1.954,0,1,1,3.907,0v3h3.579v-3.679a4.825,4.825,0,0,0-4.823-4.827H136.48a4.825,4.825,0,0,0-4.823,4.827v14.766a4.825,4.825,0,0,0,4.823,4.827h1.366a4.825,4.825,0,0,0,4.823-4.827v-4.7Z"/><path d="M188.254,554.391v-3.546H178.069v24.42h10.185v-3.889h-6.545v-6.933h5.147v-3.5h-5.02v-6.554Z"/><path d="M170.6,550.845h-6.189v24.42H170.6a4.825,4.825,0,0,0,4.823-4.827V555.672a4.825,4.825,0,0,0-4.823-4.827m1.244,8.506v10.5a1.986,1.986,0,0,1-1.985,1.987h-1.922V554.391h1.922a1.987,1.987,0,0,1,1.985,1.988Z"/><path d="M93.151,551.084H91.728a4.822,4.822,0,0,0-4.819,4.824v14.534a4.821,4.821,0,0,0,4.819,4.823h1.423a4.82,4.82,0,0,0,4.818-4.823V555.908a4.821,4.821,0,0,0-4.818-4.824m1.315,18.931A1.984,1.984,0,0,1,92.483,572H92.4a1.984,1.984,0,0,1-1.983-1.985V556.451a1.984,1.984,0,0,1,1.983-1.985h.087a1.984,1.984,0,0,1,1.983,1.985Z"/><path d="M103.753,575.275V558.63s2.617,16.687,2.744,16.645,3.546,0,3.546,0l2.448-16.645v16.645H116v-24.19h-5.066l-2.574,16.758-2.829-16.758H100.46v24.19Z"/><path d="M117.515,551.084h3.757l2.828,10.5,2.829-10.5h3.884l-4.9,15.681v8.509h-3.8v-8.509Z"/><path d="M189.411,573.655a1.581,1.581,0,1,1,1.58,1.629,1.6,1.6,0,0,1-1.58-1.629m2.851,0a1.272,1.272,0,1,0-1.271,1.339,1.3,1.3,0,0,0,1.271-1.339m-.674-.281a.414.414,0,0,1-.272.4l.3.574h-.348l-.244-.522h-.241v.522h-.3v-1.425h.59c.325,0,.52.167.52.45m-.566.229c.154,0,.239-.077.239-.213a.211.211,0,0,0-.235-.222h-.245v.435Z"/><path class="a" d="M144.868,562.337l2.083-2.086v-6.327a2.838,2.838,0,0,1,2.836-2.839h2.668v2.57h-2.262a.839.839,0,0,0-.839.839v6.242a.141.141,0,0,1-.041.1l-1.371,1.372a.283.283,0,0,0,0,.4l1.526,1.528a.141.141,0,0,1,.041.1v7.316a.851.851,0,0,0,.851.851h2.1v2.3h-2.869a2.838,2.838,0,0,1-2.837-2.84v-7.155l-1.885-1.973a.283.283,0,0,1,0-.4"/><path class="a" d="M162.36,562.337l-2.083-2.086v-6.327a2.838,2.838,0,0,0-2.837-2.839h-2.667v2.57h2.262a.839.839,0,0,1,.839.839v6.242a.137.137,0,0,0,.041.1l1.37,1.372a.283.283,0,0,1,0,.4l-1.525,1.528a.142.142,0,0,0-.042.1v7.316a.85.85,0,0,1-.851.851h-2.094v2.3h2.869a2.838,2.838,0,0,0,2.836-2.84v-7.155l1.886-1.973a.283.283,0,0,0,0-.4"/><path class="a" d="M154.067,558.063h-2.481l2.31,3.987a.587.587,0,0,1,0,.591l-2.308,3.927h2.481l2.363-3.952a.586.586,0,0,0,0-.6Z"/></g></g></svg>