<svg xmlns="http://www.w3.org/2000/svg" width="64.187" height="23.745" viewBox="0 0 64.187 23.745"><defs><style>.a{fill:#1a1818;}.b{fill:#4ba935;}</style></defs><g transform="translate(-220.204 -644.008)"><path class="a" d="M220.2,656.264v-9h.455l4.275,4.265,4.27-4.265h1v9H228.2v-5.5l-3.511,3.51-3.483-3.51v5.5Z"/><path class="a" d="M234.2,649.261h2.006a1.914,1.914,0,0,1,1.409.593,1.936,1.936,0,0,1,.588,1.413v3a2.016,2.016,0,0,1-2,2H234.2a2.008,2.008,0,0,1-2-2v-3a2.011,2.011,0,0,1,2-2.006Zm0,2.006v3a1,1,0,0,0,2.006,0v-3a1,1,0,0,0-2.006,0Z"/><path class="a" d="M244.2,649.261h2v3.586a3.44,3.44,0,0,1-3.417,3.417H240.2v-7h2v6h1a1.006,1.006,0,0,0,1-.994Z"/><path class="a" d="M254.2,653.264h-4v1a1.006,1.006,0,0,0,1,.994h1a.878.878,0,0,0,.993-.994h1q-.234,2-2,2h-2.007a2.009,2.009,0,0,1-2-2v-3a2.013,2.013,0,0,1,2-2.006H252.2a1.91,1.91,0,0,1,1.408.593,1.936,1.936,0,0,1,.588,1.413Zm-4-1H252.2v-.994a1,1,0,0,0-2.007,0Z"/><path class="b" d="M263.371,644.008h3.51a3.353,3.353,0,0,1,2.466,1.038,3.391,3.391,0,0,1,1.029,2.474v5.25a3.529,3.529,0,0,1-3.495,3.494h-3.51a3.517,3.517,0,0,1-3.495-3.494v-5.25a3.524,3.524,0,0,1,3.495-3.512Zm0,3.512v5.25a1.755,1.755,0,0,0,3.51,0v-5.25a1.755,1.755,0,0,0-3.51,0Z"/><path class="b" d="M273.871,656.264V644.008h3.494v1.756a2.164,2.164,0,0,1,.546-1.321,1.641,1.641,0,0,1,1.21-.435h1.755a3.349,3.349,0,0,1,2.465,1.038,3.392,3.392,0,0,1,1.03,2.474v8.744h-3.495V647.52a1.756,1.756,0,0,0-3.511,0v8.744Z"/><path class="a" d="M262.92,664.382a.6.6,0,0,1-.385-.445c-.262-.887-.354-2.289-.5-2.89-.022-.09-.029-.1-.059-.1s-.038.023-.061.1a19.522,19.522,0,0,0-.807,3.035c-.017.157-.025.255-.025.269,0,.076-.121.134-.279.133-.232,0-.2-.047-.291-.093-.059-.031-.111-.068-.111-.113,0-.33.8-2.758.851-2.967l.07-.254c.132-.493.217-.8.318-1.21.031-.128.15-.052.151-.135s-.111-.173-.108-.428c0-.03.008-.052.076-.081a1.415,1.415,0,0,1,.449-.063c.038,0,.083.038.105.105.473,1.459.348,2.881.732,4.353.021.082.036.113.058.113s.023-.015.069-.112a21.941,21.941,0,0,0,.977-2.756c.053-.172.091-.231.138-.411.07-.262.058-.546.135-.808.039-.134.046-.157.159-.156s.224.047.306.048c.1,0,.268.212.268.25a.514.514,0,0,1-.085.284,2.113,2.113,0,0,0-.108.3c-.369,1.015-.687,2.2-1.315,3.734-.061.149-.069.157-.107.193-.151.149-.234.193-.354.192A.535.535,0,0,1,262.92,664.382Z"/><path class="a" d="M266.1,664.427a.729.729,0,0,1-.285-.056,4.8,4.8,0,0,1-.477-.214.912.912,0,0,1-.37-.52,2.271,2.271,0,0,1-.085-.578.877.877,0,0,1,.04-.247,5.037,5.037,0,0,1,1.307-2.018,1.176,1.176,0,0,1,1.261-.243.469.469,0,0,1,.236.467,1.2,1.2,0,0,1-.178.537,1.438,1.438,0,0,1-.243.35,7.346,7.346,0,0,1-1.752,1.572c-.038.022-.046.037-.046.059a.461.461,0,0,0,.177.318.466.466,0,0,0,.232.061,1.188,1.188,0,0,0,.578-.2c.52-.273.839-.674,1.29-.954a.247.247,0,0,1,.151-.052c.045,0,.149.077.148.151a.8.8,0,0,1-.008.1.122.122,0,0,1-.038.1,5.952,5.952,0,0,1-1.668,1.3A.422.422,0,0,1,266.1,664.427Zm1-3.415c0-.061,0-.09-.044-.09a.289.289,0,0,0-.158.066c-.083.051-.075.028-.15.1a3.689,3.689,0,0,0-1.192,1.705c0,.03.007.038.014.038a.11.11,0,0,0,.053-.022,7.288,7.288,0,0,0,1.157-1.144c.113-.133.083-.156.182-.3A.6.6,0,0,0,267.1,661.012Z"/><path class="a" d="M269.113,661.045a1.309,1.309,0,0,0-.1.224c-.306.709-.522,1.441-.777,2.18a.427.427,0,0,0-.031.12.02.02,0,0,0,.023.023c.022,0,.067-.014.287-.267a6.876,6.876,0,0,0,1.14-1.736.182.182,0,0,1,.2-.1c.075,0,.12.016.173.017a.257.257,0,0,1,.23.227c0,.113-.055.217-.253.545a2.2,2.2,0,0,0-.16.372,3.023,3.023,0,0,0-.289,1.212.141.141,0,0,0,.111.143.491.491,0,0,0,.325-.214,3.035,3.035,0,0,0,.53-1.5c0-.1.039-.187.04-.277,0-.209-.146-.442-.144-.615a.23.23,0,0,1,.084-.179.977.977,0,0,1,.315-.042c.12,0,.067.045.283.19a.9.9,0,0,0,.569.118c.322,0,.615-.085,1-.081.068,0,.173,0,.171.211,0,.1-.129.179-.362.23a4.358,4.358,0,0,1-.841.186,2.081,2.081,0,0,1-.479-.064c-.053,0-.068.037-.068.1s0,.226-.011.308a3.1,3.1,0,0,1-.895,2.007.407.407,0,0,1-.33.124,1.416,1.416,0,0,1-.635-.216.407.407,0,0,1-.207-.346c0-.135.024-.2.025-.292,0-.037-.007-.06-.022-.06s-.052.029-.12.1c-.227.222-.38.543-.7.54-.12,0-.134-.054-.314-.123a.539.539,0,0,1-.23-.152.6.6,0,0,1-.051-.218.7.7,0,0,1,.032-.2c.233-.906.7-1.777.833-2.653a.245.245,0,0,1,.144-.141.519.519,0,0,1,.18-.021c.075,0,.135.009.21.01.052,0,.179.076.178.174A.326.326,0,0,1,269.113,661.045Z"/><path class="a" d="M275,661.1a1.377,1.377,0,0,0-.1.224c-.307.709-.523,1.441-.777,2.18a.426.426,0,0,0-.031.12c0,.015.007.023.022.023s.068-.014.287-.267a6.849,6.849,0,0,0,1.14-1.736.183.183,0,0,1,.2-.1c.075,0,.119.016.172.017a.256.256,0,0,1,.23.227c0,.113-.054.217-.252.545a2.145,2.145,0,0,0-.161.372,3.039,3.039,0,0,0-.288,1.212.14.14,0,0,0,.111.143.488.488,0,0,0,.324-.214,3.051,3.051,0,0,0,.531-1.5c0-.1.039-.187.04-.277,0-.209-.146-.442-.145-.615a.235.235,0,0,1,.085-.179.971.971,0,0,1,.315-.042c.119,0,.067.045.283.19a.9.9,0,0,0,.568.118c.322,0,.615-.085,1.005-.081.067,0,.172,0,.17.211,0,.1-.129.179-.362.23a4.352,4.352,0,0,1-.84.186,2.081,2.081,0,0,1-.479-.064c-.053,0-.068.037-.069.1s0,.226-.01.308a3.1,3.1,0,0,1-.9,2.007.41.41,0,0,1-.331.124,1.416,1.416,0,0,1-.635-.216.408.408,0,0,1-.206-.346c0-.135.024-.2.025-.292,0-.037-.007-.06-.022-.06s-.053.029-.121.1c-.227.222-.38.543-.7.54-.12,0-.134-.054-.313-.123a.537.537,0,0,1-.231-.152.621.621,0,0,1-.051-.218.734.734,0,0,1,.032-.2c.233-.906.7-1.777.834-2.653a.246.246,0,0,1,.143-.141.524.524,0,0,1,.18-.021c.075,0,.135.009.21.01.053,0,.179.076.178.174A.316.316,0,0,1,275,661.1Z"/><path class="a" d="M281.038,661.349a.252.252,0,0,1,.209.1.065.065,0,0,1,.015.045.155.155,0,0,1-.031.083,4.881,4.881,0,0,0-.884,1.58,2.77,2.77,0,0,0-.11.666,1.011,1.011,0,0,0,.152.563.1.1,0,0,1,.014.045c0,.016-.031.09-.158.1a1.206,1.206,0,0,1-.143.028.38.38,0,0,1-.32-.152,1.538,1.538,0,0,1-.122-.646,2.42,2.42,0,0,1,.034-.374c0-.03,0-.038-.03-.038s-.1.052-.181.133l-.408.371a2.185,2.185,0,0,1-.9.554.456.456,0,0,1-.12.029c-.082,0-.172-.055-.521-.342a.548.548,0,0,1-.161-.444,1.993,1.993,0,0,1,.46-1.1,4.133,4.133,0,0,1,1.089-1.114,3.732,3.732,0,0,1,1.2-.581.627.627,0,0,1,.165-.021.647.647,0,0,1,.455.221.542.542,0,0,1,.111.152A.21.21,0,0,0,281.038,661.349Zm-.892.022a5.412,5.412,0,0,0-1.7,1.288,2.312,2.312,0,0,0-.572,1.036c0,.091.029.2.164.205a.794.794,0,0,0,.369-.207,8.826,8.826,0,0,0,1.882-1.848,1.315,1.315,0,0,1,.22-.283.171.171,0,0,0,.038-.112.159.159,0,0,0-.171-.152A.69.69,0,0,0,280.146,661.371Z"/><path class="a" d="M282.49,661.347c-.13.224-.144.172-.2.284a11.7,11.7,0,0,0-.539,1.523,1.627,1.627,0,0,0-.062.239,1.36,1.36,0,0,0-.039.24c0,.067.013.12.036.12a.329.329,0,0,0,.165-.044,1.9,1.9,0,0,0,.6-.489c.061-.067.159-.148.28-.3a3.725,3.725,0,0,0,.973-1.467c.023-.059.129-.223.2-.223s.112.053.231.054c.248,0,.261.168.26.273a.733.733,0,0,1-.175.38l-.145.224a4.25,4.25,0,0,0-.466.962c-.062.179-.368.948-.422,1.12a1.94,1.94,0,0,0-.093.3c0,.016.015.016.03.016s.045-.007.068-.007c.045,0,.134.032.134.083a.283.283,0,0,1-.047.188,5.156,5.156,0,0,0-.926,2.1c-.063.292-.074.749-.472.8a1.253,1.253,0,0,1-.2.027c-.112,0-.284-.017-.282-.286a1.671,1.671,0,0,1,.163-.591,10.63,10.63,0,0,1,.656-1.275c.017-.135.256-.889.464-1.5a2.585,2.585,0,0,0,.139-.471c0-.015-.007-.03-.022-.03s-.046.022-.106.081a2.965,2.965,0,0,1-.83.57.856.856,0,0,1-.708-.306c-.037-.046-.045-.06-.044-.18a9.079,9.079,0,0,1,.8-2.721.332.332,0,0,1,.264-.214c.038,0,.135.038.21.039s.194.069.193.167A.553.553,0,0,1,282.49,661.347Z"/></g></svg>