<svg xmlns="http://www.w3.org/2000/svg" width="100.095" height="26.908" viewBox="0 0 100.095 26.908"><defs><style>.a{fill:#4b4b4b;}.b{fill:#e9cb00;}.c{fill:#9ab826;}</style></defs><g transform="translate(-259.112 -115.367)"><rect class="a" width="41.366" height="19.07" transform="translate(259.112 119.707)"/><rect class="b" width="59.225" height="26.908" transform="translate(299.983 115.367)"/><path class="c" d="M262.962,128.857c0,2.552,1.125,3.988,3.14,3.988a2.578,2.578,0,0,0,2.846-2.457h1.488v.035c0,2.179-1.842,3.78-4.342,3.78-2.923,0-4.636-1.99-4.636-5.346v-1.548c0-3.391,1.713-5.414,4.636-5.414a4.033,4.033,0,0,1,4.342,3.987v.026h-1.488a2.661,2.661,0,0,0-2.846-2.655c-2.015,0-3.14,1.462-3.14,4.057Z" transform="translate(0.673 1.873)"/><path class="c" d="M277.662,133.9v-5.441H271.72V133.9h-1.513V122.089h1.513v5.026h5.942v-5.026h1.513V133.9Z" transform="translate(3.184 1.929)"/><path class="c" d="M278.438,133.9l4.2-11.807h1.539l4.2,11.807h-1.592l-1.193-3.547h-4.4l-1.193,3.547Zm4.947-10.026-1.773,5.26h3.582l-1.764-5.26Z" transform="translate(5.546 1.929)"/><path class="c" d="M288.888,122.089h-1.453V133.9h1.445v-9.229h.035l2.94,4.521v-2.542Z" transform="translate(8.128 1.929)"/><path class="a" d="M297.469,136.793V119.537h-2.111v14.658h-.051l-4.439-6.818v2.534l4.476,6.882Z" transform="translate(9.113 1.197)"/><path class="a" d="M309.773,124.764a3.932,3.932,0,0,0-4.235-3.641c-2.933,0-4.652,2.073-4.652,5.6v2.553c0,3.743,1.643,5.866,4.716,5.866,2.529,0,4.248-1.542,4.248-3.78v-1.668H305.4v-1.921H312v3.552c0,3.3-2.668,5.8-6.41,5.8-4.488,0-6.9-2.846-6.9-7.852v-2.553c0-4.7,2.566-7.585,6.852-7.585,3.679,0,6.194,2.275,6.422,5.627Z" transform="translate(11.357 1.082)"/><path class="a" d="M322.072,136.679H311.718V119.422h10.354v1.973h-8.154v5.511h7.7v1.921h-7.7v5.879h8.154Z" transform="translate(15.097 1.164)"/><path class="a" d="M323.7,132.117c.165,1.669,1.593,3.059,4.248,3.059,2.4,0,3.945-1.163,3.945-3.046,0-1.43-.9-2.238-2.82-2.731l-3.033-.8c-2.049-.532-4.033-1.834-4.033-4.526,0-3.235,2.883-4.968,5.981-4.968,2.932,0,5.89,1.555,5.966,4.9h-2.187c-.152-1.656-1.417-2.959-3.831-2.959-2.136,0-3.691,1.024-3.691,2.87,0,1.226.771,2.136,2.427,2.555l2.983.8c2.655.695,4.488,1.921,4.488,4.69,0,3.4-2.844,5.171-6.434,5.171-4.576,0-6.158-2.782-6.221-5.019Z" transform="translate(17.901 1.073)"/></g></svg>