<svg xmlns="http://www.w3.org/2000/svg" width="67.185" height="101.791" viewBox="0 0 67.185 101.791"><defs><style>.a{fill:#0187c4;}.b{fill:#0ea8e4;}.c{fill:#006da5;}.d{fill:#006bac;font-size:18px;font-family:Roboto-Black, Roboto;font-weight:800;}.e{fill:#4b4b4b;font-size:5px;font-family:Roboto-Regular, Roboto;}</style></defs><g transform="translate(-22.127 -1044.481)"><g transform="translate(22.127 1044.481)"><path class="a" d="M62.985,1078.4s4.534-8.8,0-17.733-4.906-14.136-4.906-14.136l-4.092,21.577Z" transform="translate(-40.516 -1045.666)"/><path class="a" d="M80.276,1075.978s-2.232-16.229,17.237-22.933,20.089-8.564,20.089-8.564l-2.108,31.5-21.577,18.6Z" transform="translate(-55.645 -1044.481)"/><path class="b" d="M84.727,1087.827s-1.386-10.186,18.894-16.11,19.666-6.98,19.666-6.98-4.406,25.126,2.146,37.05c0,0-14.881,9.692-18.921,21.6C106.511,1123.382,85.39,1096.068,84.727,1087.827Z" transform="translate(-58.247 -1056.172)"/><path class="b" d="M58.169,1081.7s-.9-7.23-8.205-15.253-4.993-11.408-4.993-11.408-7.731,4.272,6.94,36.919c0,0,14.639,9.672,19.755,15.039Z" transform="translate(-34.137 -1050.576)"/><path class="c" d="M81.3,1130.541c.944,1.753,1.869,3.515,2.754,5.3a76.388,76.388,0,0,1,6.337,16.834c1.005,4.4,2.246,9.573,7.038,11.205,2.82.961,5.294-1.318,5.59-3.944.4-3.579-1.153-6.5-3.028-9.452-4.873-7.66-9.518-15.408-15.282-22.405-1.057-1.284-3.124-4.524-4.751-4.99-2.939-.843-.658,3.79-.135,4.742Q80.566,1129.182,81.3,1130.541Z" transform="translate(-54.657 -1089.792)"/><g transform="translate(0 16.335)"><circle class="c" cx="5.448" cy="5.448" r="5.448" transform="matrix(0.657, -0.754, 0.754, 0.657, 13.806, 16.636)"/><path class="c" d="M40.371,1110.475c-3.7-3.021-7.925-6.258-13.012-5.236-1.959.394-4.084,1.533-4.837,3.506a8.923,8.923,0,0,0,.392,6.2c.211.506,1.034.5,1.027-.139-.017-1.69-.51-3.447.362-5.023a5.55,5.55,0,0,1,5.205-2.525c3.774.133,6.958,2.316,9.946,4.4C40.152,1112.147,41.038,1111.019,40.371,1110.475Z" transform="translate(-22.127 -1095.773)"/><path class="c" d="M44.843,1085.02c-1.89-.942-4.275-2.155-6.447-1.859a3.052,3.052,0,0,0-2.638,3.317.586.586,0,0,0,1.062.139c1.31-3.072,7.593.7,9.342,1.845,2.818,1.837,4.55,4.389,6.393,7.131.245.365.929.267.894-.242C53.123,1090.63,48.794,1086.989,44.843,1085.02Z" transform="translate(-29.976 -1083.116)"/></g></g><g transform="translate(31.367 1118.708)"><text class="d" transform="translate(0 19)"><tspan x="0" y="0">LEARN</tspan></text></g><g transform="translate(35.598 1140.271)"><text class="e" transform="translate(0 5)"><tspan x="0" y="0" xml:space="preserve">FORMATION  FOR ALL</tspan></text></g></g></svg>